<svg xmlns="http://www.w3.org/2000/svg" width="26" height="26" viewBox="0 0 26 26"><path fill="#fff" d="M12.5 2a10.5 10.5 0 1 1 0 21 10.5 10.5 0 0 1 0-21z"/><path fill="#32a7e0" d="M13 0a13 13 0 1 0 0 26 13 13 0 0 0 0-26zm5.17 10.35v.34a7.53 7.53 0 0 1-7.58 7.59 7.6 7.6 0 0 1-4.09-1.19 5.32 5.32 0 0 0 3.95-1.11 2.66 2.66 0 0 1-2.5-1.85 2.7 2.7 0 0 0 1.2-.05 2.66 2.66 0 0 1-2.13-2.61v-.04c.36.2.77.32 1.21.34a2.67 2.67 0 0 1-.83-3.56 7.57 7.57 0 0 0 5.5 2.78 2.66 2.66 0 0 1 4.55-2.43c.6-.12 1.18-.34 1.7-.65-.2.63-.63 1.15-1.18 1.48a5.59 5.59 0 0 0 1.53-.42c-.36.53-.8 1-1.33 1.38z"/></svg>