<svg xmlns="http://www.w3.org/2000/svg" width="30" height="27" viewBox="0 0 30 27"><path fill="#00a4b4" d="M7.74 13.29c0 .66-.32 1.2-.71 1.2-.4 0-.72-.54-.72-1.2 0-.66.32-1.19.72-1.19.4 0 .71.53.71 1.19zm19.27 4.51a4.56 4.56 0 0 1-5.98 6.15A4.55 4.55 0 0 1 16.75 27a4.55 4.55 0 0 1-4.28-3.05 4.56 4.56 0 0 1-6.44-4.16v-.08a9.93 9.93 0 0 1-2.74.75A3.33 3.33 0 0 1 0 17.1c0-1.78 2.6-4.2 2.63-4.66a6.15 6.15 0 0 1 3.4-5.1v-.13-.01c0-.55.1-1.07.28-1.56l.02-.05a4.68 4.68 0 0 1 1.02-1.61l.01-.01c.45-.45 1-.8 1.6-1.04l.12-.04a4.64 4.64 0 0 1 1.5-.26l.2.01h.03l.2.02h.04l.18.02.06.01.17.03.07.02.14.03.1.02.08.03.15.05.05.01.18.07.03.01.21.09a4.54 4.54 0 0 1 8.56 0 4.56 4.56 0 0 1 5.98 6.15 4.57 4.57 0 0 1 0 8.6zM9.02 12.67c0-.43.04-.8.1-1.13A4.59 4.59 0 0 1 6.54 9.3c-1.43 1.01-1.68 2.92-1.77 3.15-.12.31-2.91 3.85-2.91 4.65 0 .81.64 1.47 1.43 1.47.8 0 6.44-2.6 6.52-2.82.08-.22-.79-1.23-.79-3.08zm9.26-.21a3.69 3.69 0 0 0-3.65-3.72 3.69 3.69 0 0 0-3.65 3.72c0 1.14.5 2.2 1.38 2.91.16.13.35.19.55.19.26 0 .52-.11.7-.34a.92.92 0 0 0-.15-1.27 1.9 1.9 0 0 1-.7-1.49 1.9 1.9 0 0 1 1.87-1.91c1.03 0 1.87.85 1.87 1.91 0 .23-.06.41-.17.52a.52.52 0 0 1-.37.14c-.17 0-.45-.06-.45-.46a.9.9 0 0 0-.89-.91.9.9 0 0 0-.89.91 2.2 2.2 0 0 0 2.23 2.27c.6 0 1.17-.23 1.59-.64.33-.32.73-.9.73-1.83z"/></svg>