<svg xmlns="http://www.w3.org/2000/svg" width="187" height="34" viewBox="0 0 187 34"><path fill="#fff" d="M19.85 8.45c1.2 0 2.25.21 3.14.65.9.43 1.7 1.04 2.36 1.82a8.43 8.43 0 0 1 1.46 2.7c.35 1.03.52 2.16.52 3.37v6.72c0 .41-.15.77-.45 1.06-.3.3-.65.45-1.06.45-.4 0-.76-.15-1.05-.45-.3-.3-.45-.65-.45-1.06V17c0-.39-.02-.77-.05-1.13-.03-.37-.1-.72-.22-1.07a4.62 4.62 0 0 0-2.22-2.95c-.6-.3-1.25-.44-1.98-.44a4.58 4.58 0 0 0-2.02.44c-.27.16-.53.34-.77.53-.24.2-.45.42-.63.67-.32.5-.6 1.1-.82 1.79a9.03 9.03 0 0 0-.27 2.2v6.68c0 .41-.14.77-.43 1.06-.28.3-.64.45-1.08.45-.4 0-.75-.15-1.04-.45-.28-.3-.42-.65-.42-1.06v-6.69c0-.73-.1-1.46-.28-2.2a8.14 8.14 0 0 0-.82-1.78A4 4 0 0 0 7.9 11.4a4.59 4.59 0 0 0-2.01.44c-.28.16-.53.34-.75.53-.23.2-.44.42-.62.67-.36.5-.64 1.1-.82 1.79-.11.34-.19.7-.22 1.06-.04.37-.05.74-.05 1.13h-.04v6.7c0 .4-.15.76-.44 1.05-.3.3-.65.45-1.06.45h-.17c-.41 0-.76-.15-1.06-.45-.3-.3-.44-.65-.44-1.06v-7.58a7.54 7.54 0 0 1 2.23-5.44c.7-.7 1.5-1.24 2.43-1.64.92-.4 1.92-.6 2.99-.6a7.2 7.2 0 0 1 3.52.82c.38.23.75.48 1.09.75.39.35.85.52 1.38.52.54 0 1-.17 1.39-.52.34-.27.7-.52 1.09-.75a7.09 7.09 0 0 1 3.52-.82zm19.23-.04c1.16 0 2.26.23 3.31.69a7.7 7.7 0 0 1 2.7 1.85c.8.76 1.41 1.66 1.84 2.71a8.28 8.28 0 0 1 0 6.66 8.55 8.55 0 0 1-1.84 2.74 8.24 8.24 0 0 1-6.01 2.5 8.23 8.23 0 0 1-6.05-2.5 7.76 7.76 0 0 1-1.02-1.27c-.3-.46-.56-.95-.79-1.47a8.28 8.28 0 0 1-.68-3.33c0-1.17.23-2.28.68-3.33a8.42 8.42 0 0 1 4.54-4.56 8.18 8.18 0 0 1 3.32-.69zm0 14.13c.75 0 1.46-.13 2.15-.4.64-.3 1.23-.7 1.77-1.2a5.18 5.18 0 0 0 1.17-1.8c.15-.31.27-.66.34-1.02.07-.37.1-.74.1-1.13 0-.78-.15-1.5-.44-2.16A5.55 5.55 0 0 0 43 13.04a5.12 5.12 0 0 0-1.77-1.16 5.2 5.2 0 0 0-2.15-.45c-.4 0-.77.04-1.13.1-.36.07-.7.19-1.02.35a5.53 5.53 0 0 0-1.78 1.16 7 7 0 0 0-1.2 1.79 5.8 5.8 0 0 0 0 4.32 7 7 0 0 0 1.2 1.78 5.36 5.36 0 0 0 3.93 1.61zm23.3-20.1A1.53 1.53 0 0 1 61.07 4c-.46.07-.86.17-1.2.3-.68.33-1.2.7-1.57 1.14a4.34 4.34 0 0 0-.86 1.68 4.51 4.51 0 0 0-.27 1.68h2.32c.37 0 .68.13.94.4.26.26.4.57.4.94v.03c0 .37-.14.68-.4.95-.26.26-.57.39-.94.39h-2.32s.02 13.71 0 13.95c-.04.44-.03.45-.07.7-.05.34-.14.64-.2.98a7.46 7.46 0 0 1-1.81 3.64 7.37 7.37 0 0 1-3.46 2.1c-.31.1-.64.18-.99.23-.45.07-.86-.05-1.23-.36-.36-.31-.54-.7-.54-1.19a1.53 1.53 0 0 1 1.3-1.54 5.4 5.4 0 0 0 1.2-.3 4.5 4.5 0 0 0 1.56-1.14c.39-.46.67-1.02.86-1.68l.2-.8c.05-.23.07-.52.07-.88V11.5h-1.9c-.37 0-.7-.13-.95-.4a1.3 1.3 0 0 1-.4-.94c0-.39.14-.71.4-.98.26-.26.59-.39.97-.39h1c.25 0 .46-.09.64-.26s.3-.38.35-.63c.04-.35.1-.69.16-1.03a7.45 7.45 0 0 1 1.81-3.64 7.35 7.35 0 0 1 3.46-2.1c.31-.11.64-.18.99-.23.45-.07.86.05 1.23.36.36.3.54.7.54 1.18zm65.37 0a1.53 1.53 0 0 1-1.3 1.55c-.45.07-.85.17-1.2.3-.68.33-1.2.7-1.57 1.14a4.34 4.34 0 0 0-.85 1.68 4.51 4.51 0 0 0-.27 1.68h2.32c.36 0 .68.13.94.4.26.26.4.57.4.94v.03c0 .37-.14.68-.4.95-.26.26-.58.39-.94.39h-2.32s.02 13.71 0 13.95c-.05.44-.03.45-.07.7-.05.34-.14.64-.2.98a7.47 7.47 0 0 1-1.81 3.64 7.38 7.38 0 0 1-3.46 2.1c-.32.1-.65.18-.99.23-.45.07-.86-.05-1.23-.36-.36-.31-.54-.7-.54-1.19a1.53 1.53 0 0 1 1.3-1.54 5.4 5.4 0 0 0 1.19-.3 4.5 4.5 0 0 0 1.57-1.14c.39-.46.67-1.02.86-1.68l.2-.8c.05-.23.07-.52.07-.88V11.5h-1.9c-.38 0-.7-.13-.96-.4a1.3 1.3 0 0 1-.38-.94c0-.39.13-.71.39-.98.26-.26.58-.39.97-.39h1c.24 0 .46-.09.64-.26s.3-.38.34-.63c.05-.35.1-.69.17-1.03a7.47 7.47 0 0 1 1.81-3.64 7.33 7.33 0 0 1 3.45-2.1c.32-.11.65-.18 1-.23.45-.07.86.05 1.22.36.37.3.55.7.55 1.18zm-42.53 6a7.03 7.03 0 0 1 5.5 2.47 8.43 8.43 0 0 1 1.47 2.72c.34 1.02.51 2.15.51 3.36v6.72c0 .41-.14.77-.44 1.06-.3.3-.65.45-1.06.45-.41 0-.76-.15-1.06-.45-.3-.3-.44-.65-.44-1.06V17c0-.39-.02-.77-.05-1.13-.04-.37-.11-.72-.23-1.07a4.63 4.63 0 0 0-2.22-2.95c-.59-.3-1.25-.44-1.98-.44a4.59 4.59 0 0 0-2.01.44c-.27.16-.53.34-.77.53-.24.2-.45.42-.63.67-.32.5-.6 1.1-.82 1.79a9.03 9.03 0 0 0-.27 2.2v6.68c0 .41-.15.77-.43 1.06-.29.3-.65.45-1.08.45-.4 0-.76-.15-1.04-.45-.28-.3-.43-.65-.43-1.06v-6.69c0-.73-.09-1.46-.27-2.2a8.09 8.09 0 0 0-.82-1.78 4 4 0 0 0-3.38-1.64 4.57 4.57 0 0 0-2.02.44c-.27.16-.52.34-.75.53-.23.2-.43.42-.61.67-.37.5-.64 1.1-.82 1.79-.12.34-.19.7-.22 1.06-.04.37-.06.74-.06 1.13h-.03v6.7c0 .4-.15.76-.44 1.05-.3.3-.65.45-1.06.45h-.17c-.41 0-.77-.15-1.06-.45-.3-.3-.45-.65-.45-1.06v-7.58a7.56 7.56 0 0 1 2.24-5.44 7.71 7.71 0 0 1 8.93-1.42c.39.23.75.48 1.1.75.38.35.84.52 1.38.52.53 0 1-.17 1.38-.52a7.09 7.09 0 0 1 4.61-1.58zm19.23-.03c1.17 0 2.27.23 3.32.69a7.7 7.7 0 0 1 2.7 1.85c.8.76 1.4 1.66 1.84 2.71a8.3 8.3 0 0 1 0 6.66 8.59 8.59 0 0 1-1.85 2.74 8.23 8.23 0 0 1-6.01 2.5 8.47 8.47 0 0 1-7.86-5.25 8.28 8.28 0 0 1-.67-3.32c0-1.17.22-2.28.68-3.33a8.43 8.43 0 0 1 4.54-4.56 8.18 8.18 0 0 1 3.31-.69zm0 14.13c.75 0 1.47-.13 2.16-.4.63-.3 1.22-.7 1.77-1.2a5.23 5.23 0 0 0 1.16-1.8c.16-.31.28-.66.34-1.02.07-.37.1-.74.1-1.13 0-.78-.14-1.5-.44-2.16a5.55 5.55 0 0 0-1.16-1.79 5.17 5.17 0 0 0-1.77-1.16 5.2 5.2 0 0 0-2.16-.45c-.38 0-.76.04-1.12.1-.37.07-.7.19-1.03.35a5.49 5.49 0 0 0-1.77 1.16 7 7 0 0 0-1.2 1.79 5.8 5.8 0 0 0 0 4.32 7 7 0 0 0 1.2 1.78 5.36 5.36 0 0 0 3.93 1.61zM141.63 4.2c0 .5-.17.93-.51 1.27-.35.35-.76.52-1.23.52-.5 0-.93-.17-1.27-.52a1.73 1.73 0 0 1-.51-1.27c0-.48.17-.89.51-1.23a1.7 1.7 0 0 1 1.27-.52c.47 0 .88.17 1.23.52.34.34.5.75.5 1.23zM141 9.22c.3.3.46.7.46 1.15V23.6c0 .46-.16.84-.46 1.15-.31.3-.7.46-1.15.46-.43 0-.8-.16-1.1-.46-.32-.31-.47-.7-.47-1.15V10.37c0-.46.15-.84.46-1.15.3-.31.68-.46 1.11-.46.46 0 .84.15 1.15.46zm13.13-.8c1.12 0 2.16.21 3.14.64.94.46 1.71 1.08 2.33 1.86.61.7 1.11 1.6 1.5 2.7.34 1.03.51 2.13.51 3.3v6.8c0 .4-.15.76-.44 1.05-.3.3-.65.45-1.06.45-.41 0-.77-.15-1.06-.45-.3-.3-.45-.65-.45-1.06V17c0-.39-.01-.76-.05-1.12-.03-.35-.1-.7-.22-1.04a4.9 4.9 0 0 0-.82-1.79c-.34-.5-.8-.9-1.36-1.2a4.3 4.3 0 0 0-2.02-.44c-.8 0-1.46.15-1.98.44-.6.28-1.06.68-1.4 1.2a4.92 4.92 0 0 0-.82 1.79 8.93 8.93 0 0 0-.27 2.16h-.04v6.72c0 .41-.15.77-.44 1.06-.3.3-.65.45-1.06.45h-.17c-.41 0-.76-.15-1.06-.45-.3-.3-.44-.65-.44-1.06v-7.58a7.91 7.91 0 0 1 2.24-5.45 7.54 7.54 0 0 1 5.44-2.27zm25.2 12.34c.46.23.72.6.8 1.1.08.5-.07.94-.46 1.3a7.19 7.19 0 0 1-1.74 1.3 8.3 8.3 0 0 1-4.2 1.1 8.23 8.23 0 0 1-6.01-2.5 8.32 8.32 0 0 1-2.5-6.04 8.42 8.42 0 0 1 2.5-6.07 7.7 7.7 0 0 1 2.7-1.85 8.18 8.18 0 0 1 3.3-.69 8.3 8.3 0 0 1 4.21 1.1 8.9 8.9 0 0 1 1.78 1.3c.36.37.5.8.44 1.3-.07.51-.33.89-.78 1.14-.3.16-.6.22-.91.17-.3-.05-.59-.18-.84-.41a5.29 5.29 0 0 0-3.9-1.58c-.79 0-1.5.15-2.1.45-.65.25-1.24.65-1.78 1.2a5.1 5.1 0 0 0-1.2 1.75c-.3.66-.44 1.4-.44 2.2 0 .8.14 1.5.44 2.12.25.64.65 1.23 1.2 1.78a5.2 5.2 0 0 0 1.77 1.2c.62.3 1.32.45 2.12.45a5.28 5.28 0 0 0 3.86-1.58c.25-.23.53-.37.84-.41.3-.05.6.01.9.17zm4.05 2.71c0-.53.18-.96.53-1.3.35-.35.78-.52 1.28-.52a1.75 1.75 0 0 1 1.8 1.82 1.78 1.78 0 0 1-1.8 1.82c-.5 0-.93-.18-1.28-.53a1.76 1.76 0 0 1-.53-1.29z"/></svg>