<svg xmlns="http://www.w3.org/2000/svg" width="106" height="19" viewBox="0 0 106 19"><path fill="#00a4b4" d="M11.55 4.63a3.98 3.98 0 0 1 3.1 1.4c.36.45.64.96.83 1.55.2.59.3 1.22.3 1.91v3.83c0 .23-.1.43-.26.6a.81.81 0 0 1-.6.26.81.81 0 0 1-.6-.26.83.83 0 0 1-.25-.6V9.49c0-.22 0-.43-.02-.64-.02-.21-.07-.41-.13-.6-.1-.4-.26-.74-.46-1-.18-.27-.45-.5-.8-.68a2.59 2.59 0 0 0-2.26 0c-.15.09-.3.19-.43.3-.13.1-.25.24-.35.38-.18.28-.34.62-.47 1.01-.1.42-.15.84-.15 1.25v3.8c0 .24-.08.44-.24.61a.8.8 0 0 1-.61.26.78.78 0 0 1-.59-.26.85.85 0 0 1-.24-.6v-3.8c0-.42-.05-.84-.16-1.26a4.58 4.58 0 0 0-.46-1.01 2.26 2.26 0 0 0-1.9-.94 2.59 2.59 0 0 0-1.15.26 3 3 0 0 0-.42.3c-.13.1-.25.24-.35.38-.2.28-.36.62-.46 1.01-.07.2-.1.4-.13.6-.02.22-.03.43-.03.65h-.02v3.8c0 .24-.08.44-.25.61a.81.81 0 0 1-.6.26h-.1a.81.81 0 0 1-.59-.26.83.83 0 0 1-.25-.6V9A4.3 4.3 0 0 1 1.7 5.91a4.37 4.37 0 0 1 3.06-1.28c.76 0 1.42.16 1.99.47.22.13.42.27.62.43.22.2.48.3.78.3.3 0 .56-.1.78-.3a3.98 3.98 0 0 1 2.6-.9zm10.86-.02c.66 0 1.28.13 1.88.4.59.24 1.1.6 1.52 1.05a4.75 4.75 0 0 1 1.04 5.33 4.87 4.87 0 0 1-4.44 2.98A4.63 4.63 0 0 1 19 12.95a5.7 5.7 0 0 1-1.02-1.56 4.73 4.73 0 0 1 0-3.79A4.79 4.79 0 0 1 20.53 5a4.6 4.6 0 0 1 1.87-.39zm0 8.04c.43 0 .83-.07 1.22-.23.36-.17.7-.4 1-.68a2.92 2.92 0 0 0 .66-1.02c.09-.18.15-.38.2-.58.03-.21.05-.43.05-.65a3 3 0 0 0-.25-1.23 3.14 3.14 0 0 0-.66-1.01 2.95 2.95 0 0 0-1-.67 2.92 2.92 0 0 0-1.22-.25c-.22 0-.43.02-.63.06-.21.04-.4.1-.58.2a3.13 3.13 0 0 0-1 .66c-.29.31-.51.65-.68 1.01a3.32 3.32 0 0 0 0 2.46c.17.37.39.7.67 1.02.31.28.65.51 1 .68.37.16.77.23 1.22.23zM35.58 1.22a.87.87 0 0 1-.74.88 3 3 0 0 0-.67.17c-.39.18-.69.4-.89.65-.22.26-.38.57-.48.95a2.62 2.62 0 0 0-.15.96h1.3c.21 0 .39.07.54.22.14.15.22.33.22.54v.02c0 .2-.08.39-.22.54a.72.72 0 0 1-.54.22h-1.3v7.94c-.03.25-.02.25-.05.4-.02.19-.07.36-.11.55a4.26 4.26 0 0 1-1.02 2.07 4.18 4.18 0 0 1-1.96 1.2c-.18.06-.36.1-.55.13a.83.83 0 0 1-.7-.2.84.84 0 0 1-.3-.68.88.88 0 0 1 .72-.88 3 3 0 0 0 .68-.17c.39-.19.68-.4.89-.65.22-.26.38-.58.48-.95.05-.19.1-.34.12-.46.02-.13.04-.3.04-.5v-7.8h-1.07a.73.73 0 0 1-.55-.22.74.74 0 0 1-.22-.54.76.76 0 0 1 .77-.78h.56c.15 0 .27-.05.37-.15.1-.1.17-.22.2-.36a8.49 8.49 0 0 1 .24-1.15 4.15 4.15 0 0 1 2.82-2.7c.18-.06.37-.1.56-.13.26-.04.5.03.7.2.2.18.3.4.3.68zm36.94 0a.87.87 0 0 1-.73.88c-.26.04-.49.1-.68.17-.38.18-.68.4-.89.65-.22.26-.38.57-.48.95a2.62 2.62 0 0 0-.15.96h1.3c.21 0 .4.07.54.22.15.15.22.33.22.54v.02c0 .2-.07.39-.22.54a.72.72 0 0 1-.53.22h-1.31v7.94c-.03.25-.02.25-.05.4-.02.19-.07.36-.11.55a4.26 4.26 0 0 1-1.02 2.07 4.17 4.17 0 0 1-1.95 1.2c-.18.06-.37.1-.56.13a.83.83 0 0 1-.7-.2.84.84 0 0 1-.3-.68.87.87 0 0 1 .73-.88 3 3 0 0 0 .67-.17c.39-.19.69-.4.9-.65.21-.26.37-.58.47-.95a2.53 2.53 0 0 0 .15-.96v-7.8h-1.06a.73.73 0 0 1-.54-.22.74.74 0 0 1-.22-.54.76.76 0 0 1 .77-.78h.56c.14 0 .26-.05.36-.15.1-.1.17-.22.2-.36a9.15 9.15 0 0 1 .25-1.15 4.14 4.14 0 0 1 2.82-2.7c.18-.06.36-.1.56-.13.25-.04.49.03.7.2.2.18.3.4.3.68zM48.49 4.63a3.98 3.98 0 0 1 3.1 1.4c.37.45.64.96.84 1.55.19.59.29 1.22.29 1.91v3.83c0 .23-.09.43-.25.6a.81.81 0 0 1-.6.26.81.81 0 0 1-.6-.26.83.83 0 0 1-.25-.6V9.49c0-.22-.01-.43-.03-.64-.02-.21-.06-.41-.13-.6-.1-.4-.26-.74-.46-1-.18-.27-.44-.5-.8-.68a2.58 2.58 0 0 0-2.26 0c-.14.09-.29.19-.42.3-.14.1-.26.24-.36.38-.18.28-.34.62-.46 1.01-.1.42-.16.84-.16 1.25v3.8a.85.85 0 0 1-.85.87.78.78 0 0 1-.59-.26.85.85 0 0 1-.24-.6v-3.8c0-.42-.05-.84-.15-1.26a4.63 4.63 0 0 0-.46-1.01 2.26 2.26 0 0 0-1.92-.94 2.58 2.58 0 0 0-1.13.26 2.18 2.18 0 0 0-.77.68c-.21.28-.37.62-.47 1.01-.07.2-.1.4-.13.6-.02.22-.02.43-.02.65h-.02v3.8c0 .24-.09.44-.26.61a.81.81 0 0 1-.6.26h-.09a.81.81 0 0 1-.6-.26.83.83 0 0 1-.25-.6V9a4.32 4.32 0 0 1 1.26-3.09 4.38 4.38 0 0 1 3.06-1.28c.76 0 1.43.16 2 .47.21.13.42.27.61.43.22.2.48.3.78.3.3 0 .56-.1.78-.3a3.98 3.98 0 0 1 2.6-.9zm10.87-.02c.65 0 1.28.13 1.87.4.59.24 1.1.6 1.52 1.05a4.75 4.75 0 0 1 1.04 5.33 4.88 4.88 0 0 1-4.43 2.98 4.63 4.63 0 0 1-3.42-1.42 5.61 5.61 0 0 1-1.02-1.56 4.73 4.73 0 0 1 0-3.79A4.79 4.79 0 0 1 57.48 5c.6-.26 1.22-.39 1.88-.39zm0 8.04c.42 0 .83-.07 1.21-.23.36-.17.7-.4 1-.68a2.93 2.93 0 0 0 .66-1.02c.1-.18.16-.38.2-.58.03-.21.05-.43.05-.65a3 3 0 0 0-.25-1.23 3.21 3.21 0 0 0-.66-1.01 2.95 2.95 0 0 0-1-.67 2.92 2.92 0 0 0-1.21-.25c-.22 0-.44.02-.64.06-.2.04-.4.1-.58.2a3.1 3.1 0 0 0-1 .66c-.29.31-.51.65-.68 1.01a3.3 3.3 0 0 0 .68 3.48 3.01 3.01 0 0 0 2.22.92zm21-10.44c0 .29-.1.53-.29.73-.2.2-.42.29-.7.29a.99.99 0 0 1-1-1.01c0-.28.1-.51.3-.71.19-.2.42-.3.7-.3.28 0 .5.1.7.3.2.2.3.43.3.7zM80 5.07c.18.18.26.4.26.66v7.53a.9.9 0 0 1-.9.92.85.85 0 0 1-.63-.27.89.89 0 0 1-.26-.65V5.73a.9.9 0 0 1 .26-.66.85.85 0 0 1 .63-.26c.26 0 .47.09.64.26zm7.43-.46a3.77 3.77 0 0 1 3.09 1.42c.34.41.62.93.84 1.55.2.59.3 1.21.3 1.87v3.87c0 .23-.09.43-.26.6a.81.81 0 0 1-.6.26.81.81 0 0 1-.6-.26.83.83 0 0 1-.25-.6V9.49c0-.22 0-.43-.02-.63s-.07-.4-.13-.6a2.8 2.8 0 0 0-.46-1.01c-.2-.29-.45-.51-.78-.68-.32-.17-.7-.26-1.13-.26-.45 0-.83.09-1.12.26-.34.15-.6.38-.8.68-.21.3-.37.64-.46 1.01-.1.42-.15.83-.15 1.23h-.02v3.83c0 .23-.09.43-.25.6a.81.81 0 0 1-.6.26h-.1a.81.81 0 0 1-.6-.26.83.83 0 0 1-.25-.6V9a4.32 4.32 0 0 1 1.27-3.1 4.28 4.28 0 0 1 3.08-1.3zm14.24 7.03c.25.13.4.34.45.62a.8.8 0 0 1-.26.75 4.07 4.07 0 0 1-.99.74c-.72.41-1.5.62-2.37.62a4.63 4.63 0 0 1-3.4-1.42 4.76 4.76 0 0 1-1.4-3.44 4.81 4.81 0 0 1 8.18-3.53c.2.2.29.46.25.74a.83.83 0 0 1-.44.65.8.8 0 0 1-.52.1.88.88 0 0 1-.47-.24 2.97 2.97 0 0 0-2.2-.9c-.45 0-.85.09-1.2.25-.36.15-.69.38-1 .69a3.05 3.05 0 0 0-.93 2.24c0 .46.09.86.25 1.21.15.37.37.7.68 1.02.31.3.64.54 1 .68.35.17.75.25 1.2.25a2.97 2.97 0 0 0 2.18-.9c.14-.12.3-.2.47-.23a.8.8 0 0 1 .52.1zm2.28 1.54c0-.3.1-.55.3-.74a1 1 0 0 1 .73-.3.99.99 0 0 1 1.02 1.04 1.02 1.02 0 0 1-1.75.73 1 1 0 0 1-.3-.73z"/></svg>