<svg xmlns="http://www.w3.org/2000/svg" width="65" height="59" viewBox="0 0 65 59"><path fill="#fff" d="M16.62 29.55c0 1.42-.69 2.57-1.53 2.57-.85 0-1.54-1.15-1.54-2.57 0-1.41.69-2.56 1.54-2.56.84 0 1.53 1.15 1.53 2.56zM58 39.23a9.84 9.84 0 0 1-8.76 14.11 9.63 9.63 0 0 1-4.08-.9A9.75 9.75 0 0 1 35.96 59a9.75 9.75 0 0 1-9.19-6.56c-1.24.58-2.62.9-4.07.9a9.78 9.78 0 0 1-9.74-9.82v-.18c-2.53.96-4.76 1.61-5.89 1.61A7.15 7.15 0 0 1 0 37.75c0-3.83 5.57-9.05 5.65-10.03a13.2 13.2 0 0 1 7.31-10.95v-.28-.01c0-1.18.2-2.32.58-3.37l.04-.1a9.88 9.88 0 0 1 2.2-3.45l.03-.03a9.73 9.73 0 0 1 6.89-2.87 9.48 9.48 0 0 1 .94.04l.1.01a7.91 7.91 0 0 1 1.31.24l.2.05a5.55 5.55 0 0 1 .51.15l.11.04.4.15.05.02.45.2A9.75 9.75 0 0 1 35.97 1a9.75 9.75 0 0 1 9.18 6.56 9.65 9.65 0 0 1 4.08-.9A9.84 9.84 0 0 1 58 20.77 9.82 9.82 0 0 1 64.4 30 9.82 9.82 0 0 1 58 39.23zM19.37 28.21c0-.92.08-1.72.22-2.43a9.79 9.79 0 0 1-5.55-4.8c-3.07 2.16-3.6 6.27-3.8 6.76-.26.66-6.25 8.27-6.25 10a3.12 3.12 0 0 0 3.08 3.14c1.7 0 13.82-5.56 14-6.04.16-.48-1.7-2.64-1.7-6.63zm19.87-.45c0-4.4-3.52-7.99-7.84-7.99a7.92 7.92 0 0 0-7.83 7.99A8 8 0 0 0 26.53 34a1.88 1.88 0 0 0 2.68-.31c.65-.84.51-2.06-.3-2.73a4.12 4.12 0 0 1-1.53-3.21c0-2.26 1.8-4.1 4.02-4.1a4.07 4.07 0 0 1 4.03 4.1c0 .5-.12.88-.37 1.12-.2.19-.48.3-.8.3-.36 0-.97-.13-.97-1 0-1.07-.85-1.94-1.9-1.94-1.05 0-1.9.87-1.9 1.94a4.73 4.73 0 0 0 4.78 4.88c1.29 0 2.5-.48 3.41-1.36a5.28 5.28 0 0 0 1.56-3.94z"/></svg>